<svg xmlns="http://www.w3.org/2000/svg" width="640" height="400" viewBox="0 0 640 400">
  <style>
    .bg { fill: #f7f7f9; }
    .label { font: 10px -apple-system, system-ui, sans-serif; fill: #777; text-anchor: middle; }
    .icon { fill: none; stroke: #222831; stroke-width: 2; stroke-linecap: round; stroke-linejoin: round; }
  </style>
  <rect class="bg" width="640" height="400"/>

  <!-- Row 1 -->
  <g transform="translate(40,40)"><polygon class="icon" points="6 4 20 12 6 20 6 4"/></g>
  <text class="label" x="52" y="80">play</text>

  <g transform="translate(120,40)"><rect class="icon" x="6" y="4" width="4" height="16"/><rect class="icon" x="14" y="4" width="4" height="16"/></g>
  <text class="label" x="132" y="80">pause</text>

  <g transform="translate(200,40)"><rect class="icon" x="5" y="5" width="14" height="14" rx="1"/></g>
  <text class="label" x="212" y="80">stop</text>

  <g transform="translate(280,40)"><polygon class="icon" points="4 4 16 12 4 20 4 4"/><line class="icon" x1="19" y1="5" x2="19" y2="19"/></g>
  <text class="label" x="292" y="80">skip-forward</text>

  <g transform="translate(360,40)"><polygon class="icon" points="20 4 8 12 20 20 20 4"/><line class="icon" x1="5" y1="5" x2="5" y2="19"/></g>
  <text class="label" x="372" y="80">skip-back</text>

  <g transform="translate(440,40)"><path class="icon" d="M3 12 12 3 21 12"/><path class="icon" d="M5 10v10h14V10"/><rect class="icon" x="10" y="14" width="4" height="6"/></g>
  <text class="label" x="452" y="80">home</text>

  <g transform="translate(520,40)"><circle class="icon" cx="11" cy="11" r="7"/><line class="icon" x1="20" y1="20" x2="16" y2="16"/></g>
  <text class="label" x="532" y="80">search</text>

  <!-- Row 2 -->
  <g transform="translate(40,120)"><circle class="icon" cx="12" cy="12" r="3"/><path class="icon" d="M19.4 15a1.7 1.7 0 0 0 .3 1.8l.1.1a2 2 0 1 1-2.8 2.8l-.1-.1a1.7 1.7 0 0 0-1.8-.3 1.7 1.7 0 0 0-1 1.5V21a2 2 0 0 1-4 0v-.1a1.7 1.7 0 0 0-1.1-1.5 1.7 1.7 0 0 0-1.8.3l-.1.1a2 2 0 1 1-2.8-2.8l.1-.1a1.7 1.7 0 0 0 .3-1.8 1.7 1.7 0 0 0-1.5-1H3a2 2 0 0 1 0-4h.1a1.7 1.7 0 0 0 1.5-1.1 1.7 1.7 0 0 0-.3-1.8l-.1-.1a2 2 0 1 1 2.8-2.8l.1.1a1.7 1.7 0 0 0 1.8.3H9a1.7 1.7 0 0 0 1-1.5V3a2 2 0 0 1 4 0v.1a1.7 1.7 0 0 0 1 1.5 1.7 1.7 0 0 0 1.8-.3l.1-.1a2 2 0 1 1 2.8 2.8l-.1.1a1.7 1.7 0 0 0-.3 1.8V9a1.7 1.7 0 0 0 1.5 1H21a2 2 0 0 1 0 4h-.1a1.7 1.7 0 0 0-1.5 1z"/></g>
  <text class="label" x="52" y="160">settings</text>

  <g transform="translate(120,120)"><path class="icon" d="M20 21v-2a4 4 0 0 0-4-4H8a4 4 0 0 0-4 4v2"/><circle class="icon" cx="12" cy="7" r="4"/></g>
  <text class="label" x="132" y="160">user</text>

  <g transform="translate(200,120)"><path class="icon" d="M21 11.5a8.4 8.4 0 0 1-.9 3.8 8.5 8.5 0 0 1-7.6 4.7 8.4 8.4 0 0 1-3.8-.9L3 21l1.9-5.7a8.4 8.4 0 0 1-.9-3.8 8.5 8.5 0 0 1 4.7-7.6 8.4 8.4 0 0 1 3.8-.9h.5a8.5 8.5 0 0 1 8 8z"/></g>
  <text class="label" x="212" y="160">chat</text>

  <g transform="translate(280,120)"><path class="icon" d="M4 4h16c1 0 2 1 2 2v12c0 1-1 2-2 2H4c-1 0-2-1-2-2V6c0-1 1-2 2-2z"/><polyline class="icon" points="22,6 12,13 2,6"/></g>
  <text class="label" x="292" y="160">mail</text>

  <g transform="translate(360,120)"><path class="icon" d="M22 16.92v3a2 2 0 0 1-2.18 2 19.8 19.8 0 0 1-8.63-3.07 19.5 19.5 0 0 1-6-6 19.8 19.8 0 0 1-3.07-8.67A2 2 0 0 1 4.11 2h3a2 2 0 0 1 2 1.72 12.8 12.8 0 0 0 .7 2.81 2 2 0 0 1-.45 2.11L8.09 9.91a16 16 0 0 0 6 6l1.27-1.27a2 2 0 0 1 2.11-.45 12.8 12.8 0 0 0 2.81.7A2 2 0 0 1 22 16.92z"/></g>
  <text class="label" x="372" y="160">phone</text>

  <g transform="translate(440,120)"><path class="icon" d="M12 2v6m0 12v2m10-10h-2M4 12H2m15.07-7.07-1.41 1.41M6.34 17.66l-1.41 1.41m12.73 0-1.41-1.41M6.34 6.34 4.93 4.93"/><circle class="icon" cx="12" cy="12" r="4"/></g>
  <text class="label" x="452" y="160">sun</text>

  <g transform="translate(520,120)"><path class="icon" d="M21 12.8A9 9 0 1 1 11.2 3a7 7 0 0 0 9.8 9.8z"/></g>
  <text class="label" x="532" y="160">moon</text>

  <!-- Row 3 -->
  <g transform="translate(40,200)"><path class="icon" d="M12 2 15 8.5 22 9.3l-5 4.9 1.2 7L12 17.8 5.8 21.2 7 14.2 2 9.3l7-0.8z"/></g>
  <text class="label" x="52" y="240">star</text>

  <g transform="translate(120,200)"><path class="icon" d="M20.84 4.6a5.5 5.5 0 0 0-7.78 0L12 5.67l-1.06-1.07a5.5 5.5 0 0 0-7.78 7.78l1.06 1.07L12 21.23l7.78-7.78 1.06-1.07a5.5 5.5 0 0 0 0-7.78z"/></g>
  <text class="label" x="132" y="240">heart</text>

  <g transform="translate(200,200)"><polyline class="icon" points="20 6 9 17 4 12"/></g>
  <text class="label" x="212" y="240">check</text>

  <g transform="translate(280,200)"><line class="icon" x1="18" y1="6" x2="6" y2="18"/><line class="icon" x1="6" y1="6" x2="18" y2="18"/></g>
  <text class="label" x="292" y="240">close</text>

  <g transform="translate(360,200)"><line class="icon" x1="12" y1="5" x2="12" y2="19"/><line class="icon" x1="5" y1="12" x2="19" y2="12"/></g>
  <text class="label" x="372" y="240">plus</text>

  <g transform="translate(440,200)"><line class="icon" x1="5" y1="12" x2="19" y2="12"/></g>
  <text class="label" x="452" y="240">minus</text>

  <g transform="translate(520,200)"><path class="icon" d="M21 15v4a2 2 0 0 1-2 2H5a2 2 0 0 1-2-2v-4"/><polyline class="icon" points="7 10 12 15 17 10"/><line class="icon" x1="12" y1="15" x2="12" y2="3"/></g>
  <text class="label" x="532" y="240">download</text>

  <!-- Row 4 -->
  <g transform="translate(40,280)"><path class="icon" d="M21 15v4a2 2 0 0 1-2 2H5a2 2 0 0 1-2-2v-4"/><polyline class="icon" points="17 8 12 3 7 8"/><line class="icon" x1="12" y1="3" x2="12" y2="15"/></g>
  <text class="label" x="52" y="320">upload</text>

  <g transform="translate(120,280)"><polyline class="icon" points="15 18 9 12 15 6"/></g>
  <text class="label" x="132" y="320">chevron-left</text>

  <g transform="translate(200,280)"><polyline class="icon" points="9 18 15 12 9 6"/></g>
  <text class="label" x="212" y="320">chevron-right</text>

  <text class="label" x="320" y="370" style="font-size:11px;fill:#444">20 icon set · stroke-based · 24px grid</text>
</svg>
